<svg xmlns="http://www.w3.org/2000/svg" viewBox="0 0 900 750" width="900" height="750">
  <defs>
    <linearGradient id="gg3" x1="0" y1="0" x2="1" y2="1">
      <stop offset="0" stop-color="#EFE6DA"/>
      <stop offset="0.55" stop-color="#F7F1E9"/>
      <stop offset="1" stop-color="#FCF9F5"/>
    </linearGradient>
    <radialGradient id="rg3" cx="0.5" cy="0.42" r="0.72">
      <stop offset="0" stop-color="#FFFFFF" stop-opacity="0.55"/>
      <stop offset="1" stop-color="#FFFFFF" stop-opacity="0"/>
    </radialGradient>
  </defs>
  <rect width="900" height="750" fill="url(#gg3)"/>
  <rect width="900" height="750" fill="url(#rg3)"/>
    <g stroke="#DCC08A" stroke-width="1.00" fill="none" stroke-linecap="round" opacity="0.6">
      <path d="M 864.0 45.0 L 856.0 57.7 L 848.1 70.4 L 840.0 83.1 L 831.8 95.6 L 823.5 108.1 L 814.9 120.5 L 806.2 132.7 L 797.2 144.7 L 787.9 156.5 L 778.2 168.1 L 768.2 179.4 L 757.8 190.4 L 747.0 201.0 L 735.8 211.3 L 724.0 221.2 L 711.8 230.6 L 699.0 239.5 L 685.7 247.8 L 671.9 255.5 L 657.5 262.6 L 642.5 269.0 L 627.0 274.6 L 610.8 279.4 L 594.1 283.3 L 576.9 286.2 L 559.1 288.1 L 540.7 289.0 L 521.9 288.7 L 502.6 287.1 L 482.9 284.3 L 462.8 280.1 L 442.4 274.5 L 421.7 267.3 L 400.9 258.6 L 380.0 248.3 L 359.0 236.2 L 338.1 222.4 L 317.4 206.7 L 297.1 189.2 L 277.1 169.7"/>
      <path d="M 831.8 95.6 Q 772.1 58.4 717.9 103.2 Q 777.6 140.4 831.8 95.6 Z"/>
      <path d="M 831.8 95.6 Q 810.1 162.5 866.7 204.3 Q 888.4 137.4 831.8 95.6 Z"/>
      <path d="M 787.9 156.5 Q 735.6 115.1 679.7 151.5 Q 732.0 192.9 787.9 156.5 Z"/>
      <path d="M 787.9 156.5 Q 760.3 217.2 809.2 262.6 Q 836.8 201.9 787.9 156.5 Z"/>
      <path d="M 747.0 201.0 Q 703.6 155.2 646.4 181.8 Q 689.8 227.7 747.0 201.0 Z"/>
      <path d="M 747.0 201.0 Q 713.1 254.2 752.8 303.3 Q 786.7 250.1 747.0 201.0 Z"/>
      <path d="M 685.7 247.8 Q 656.1 196.2 597.8 208.0 Q 627.4 259.6 685.7 247.8 Z"/>
      <path d="M 685.7 247.8 Q 642.9 289.1 668.4 342.8 Q 711.3 301.5 685.7 247.8 Z"/>
      <path d="M 610.8 279.4 Q 597.7 225.1 542.0 220.3 Q 555.1 274.6 610.8 279.4 Z"/>
      <path d="M 610.8 279.4 Q 561.3 305.3 570.2 360.4 Q 619.7 334.5 610.8 279.4 Z"/>
      <path d="M 540.7 289.0 Q 541.2 236.7 491.8 219.7 Q 491.3 271.9 540.7 289.0 Z"/>
      <path d="M 540.7 289.0 Q 489.9 301.1 485.3 353.2 Q 536.2 341.0 540.7 289.0 Z"/>
      <path d="M 442.4 274.5 Q 458.0 228.4 419.2 199.0 Q 403.6 245.1 442.4 274.5 Z"/>
      <path d="M 442.4 274.5 Q 393.9 270.5 374.8 315.3 Q 423.3 319.2 442.4 274.5 Z"/>
      <path d="M 338.1 222.4 Q 365.0 186.3 339.3 149.3 Q 312.4 185.4 338.1 222.4 Z"/>
      <path d="M 338.1 222.4 Q 296.6 205.0 266.9 238.9 Q 308.4 256.3 338.1 222.4 Z"/>
      <circle cx="277.1" cy="169.7" r="13.2"/>
    </g>
</svg>
